<?xml version="1.0" standalone="no"?>
<!DOCTYPE svg PUBLIC "-//W3C//DTD SVG 20010904//EN"
 "http://www.w3.org/TR/2001/REC-SVG-20010904/DTD/svg10.dtd">
<svg version="1.0" xmlns="http://www.w3.org/2000/svg"
 width="700.000000pt" height="700.000000pt" viewBox="0 0 700.000000 700.000000"
 preserveAspectRatio="xMidYMid meet">
<metadata>
Created by potrace 1.14, written by Peter Selinger 2001-2017
</metadata>
<g transform="translate(0.000000,700.000000) scale(0.100000,-0.100000)"
fill="#000000" stroke="none">
<path d="M0 3500 l0 -3500 3500 0 3500 0 0 3500 0 3500 -3500 0 -3500 0 0
-3500z m2690 1005 c0 -126 -1 -135 -19 -135 -14 0 -20 10 -25 44 -9 61 -56
131 -105 155 -22 12 -65 24 -95 27 l-56 7 0 -369 c0 -230 4 -383 11 -407 8
-30 18 -42 44 -53 19 -8 46 -14 60 -14 16 0 25 -6 25 -15 0 -13 -34 -15 -245
-15 -211 0 -245 2 -245 15 0 9 9 15 24 15 38 0 86 21 99 44 9 15 13 126 15
410 l3 389 -56 -7 c-117 -13 -186 -74 -203 -179 -6 -33 -12 -43 -30 -45 -21
-3 -22 -1 -22 95 0 54 3 115 6 136 l7 37 403 0 404 0 0 -135z m340 -52 l0
-187 33 31 c51 49 95 67 162 68 77 0 122 -25 153 -85 21 -42 22 -57 22 -250 0
-113 3 -215 6 -227 3 -12 19 -27 35 -33 16 -7 29 -19 29 -26 0 -11 -31 -14
-160 -14 -170 0 -192 7 -130 42 l30 17 0 216 c0 133 -4 224 -11 236 -25 47
-88 43 -141 -9 l-28 -26 0 -203 c0 -190 1 -204 20 -223 11 -11 25 -20 30 -20
6 0 10 -7 10 -15 0 -13 -24 -15 -160 -15 -135 0 -160 2 -160 15 0 8 11 17 25
21 14 3 30 14 35 24 6 11 10 172 10 399 0 368 -1 382 -20 401 -11 11 -27 20
-35 20 -8 0 -15 7 -15 15 0 13 21 15 130 15 l130 0 0 -187z m859 -99 c99 -29
155 -108 176 -248 l7 -46 -176 0 c-97 0 -176 -3 -176 -7 0 -5 7 -39 15 -76 25
-118 70 -167 155 -167 48 0 73 11 117 53 29 28 63 32 63 8 0 -22 -99 -116
-145 -137 -64 -30 -161 -32 -221 -5 -62 28 -119 84 -145 144 -20 44 -24 68
-24 162 0 136 21 192 97 260 78 70 159 88 257 59z m-2519 -344 c158 -19 270
-62 346 -132 142 -131 149 -418 13 -573 -112 -127 -307 -184 -637 -185 l-84 0
4 -267 c5 -314 11 -342 82 -374 23 -10 52 -19 66 -19 53 -1 70 -11 70 -41 l0
-29 -405 0 -405 0 0 30 c0 26 4 30 38 35 84 14 123 35 143 79 17 39 19 77 19
668 0 556 -2 632 -16 668 -19 47 -44 63 -126 80 -55 11 -58 13 -58 41 l0 29
433 0 c238 0 471 -5 517 -10z m3420 -505 c0 -283 4 -515 8 -515 16 0 332 327
342 355 23 60 -15 95 -102 95 -24 0 -28 4 -28 30 l0 30 255 0 255 0 0 -29 c0
-26 -4 -29 -46 -35 -81 -11 -151 -58 -282 -189 l-121 -122 239 -330 c164 -227
247 -333 264 -339 20 -8 26 -17 26 -38 l0 -28 -286 0 -285 0 3 27 c3 24 9 29
46 36 82 16 75 37 -90 273 -72 104 -133 191 -135 194 -3 3 -18 -10 -35 -29
l-31 -34 5 -168 c6 -195 12 -212 83 -231 40 -11 45 -15 45 -40 l0 -28 -290 0
-290 0 0 28 c0 23 7 30 46 46 78 32 75 -4 72 760 -3 647 -4 675 -22 695 -11
12 -36 26 -58 31 -33 9 -38 15 -38 40 l0 30 225 0 225 0 0 -515z m-2215 10
c82 -22 147 -60 204 -120 81 -86 123 -190 137 -343 l7 -72 -308 0 -307 0 7
-62 c15 -129 62 -257 113 -311 48 -51 99 -71 177 -71 87 0 136 23 216 101 57
55 57 55 83 38 14 -10 26 -20 26 -23 0 -19 -122 -159 -171 -196 -97 -73 -153
-91 -295 -91 l-121 0 -85 42 c-140 70 -224 169 -264 314 -8 30 -18 108 -21
174 -10 217 34 362 147 479 124 129 296 182 455 141z m1171 0 c126 -21 228
-73 271 -138 18 -27 38 -65 44 -85 8 -24 14 -160 18 -397 3 -198 10 -366 14
-372 12 -18 47 -16 69 4 17 15 19 15 33 -3 22 -29 19 -38 -25 -77 -65 -59
-115 -80 -206 -85 -67 -4 -87 -1 -121 17 -42 21 -75 65 -87 114 l-7 28 -47
-40 c-138 -115 -329 -153 -457 -92 -102 49 -139 108 -138 227 0 177 131 283
496 401 l148 48 -3 130 c-3 146 -20 195 -75 227 -66 39 -209 32 -254 -13 -23
-23 -25 -72 -3 -90 45 -37 61 -137 29 -185 -40 -61 -141 -83 -215 -46 -106 53
-109 214 -4 316 107 104 308 147 520 111z m2564 -15 c96 -25 127 -25 142 0 8
12 24 20 40 20 l28 0 0 -170 0 -170 -30 0 c-24 0 -33 6 -41 28 -44 117 -123
201 -213 227 -93 27 -167 6 -206 -58 -36 -58 -22 -124 37 -178 15 -15 100 -63
188 -108 175 -88 247 -143 283 -213 69 -139 42 -295 -70 -414 -69 -74 -127
-97 -255 -102 -92 -4 -112 -1 -207 27 -132 39 -143 39 -164 1 -13 -24 -24 -30
-49 -30 l-33 0 0 196 0 195 36 -3 c35 -3 37 -6 53 -58 24 -75 43 -109 87 -153
88 -87 235 -121 324 -75 58 30 83 75 77 140 -7 81 -36 107 -223 200 -203 102
-266 150 -312 238 -32 62 -34 69 -30 155 4 107 28 165 96 233 98 99 250 123
442 72z"/>
<path d="M3782 4320 c-30 -13 -50 -61 -58 -144 l-7 -66 92 0 91 0 0 51 c0 58
-17 134 -34 148 -18 16 -59 21 -84 11z"/>
<path d="M1087 3931 c-74 -15 -72 -2 -75 -381 l-3 -340 64 0 c263 0 345 96
335 390 -7 182 -49 278 -135 313 -49 19 -137 27 -186 18z"/>
<path d="M2392 3425 c-48 -40 -71 -120 -86 -292 l-6 -63 165 0 164 0 -5 88
c-14 230 -48 292 -158 292 -33 0 -52 -6 -74 -25z"/>
<path d="M3685 2961 c-114 -41 -194 -116 -220 -206 -36 -121 17 -225 114 -225
45 0 76 15 126 61 l45 42 0 173 c0 96 -3 174 -7 174 -5 -1 -31 -9 -58 -19z"/>
</g>
</svg>
